<mxfile host="65bd71144e">
    <diagram id="HL9zNe93LENzupcYRKFE" name="PÃ¡gina-1">
        <mxGraphModel dx="816" dy="427" grid="1" gridSize="10" guides="1" tooltips="1" connect="1" arrows="1" fold="1" page="1" pageScale="1" pageWidth="827" pageHeight="1169" math="0" shadow="0">
            <root>
                <mxCell id="0"/>
                <mxCell id="1" parent="0"/>
                <mxCell id="17" value="" style="group" vertex="1" connectable="0" parent="1">
                    <mxGeometry x="430" y="80" width="230" height="200" as="geometry"/>
                </mxCell>
                <mxCell id="3" value="Text" style="text;html=1;strokeColor=none;fillColor=none;align=center;verticalAlign=middle;whiteSpace=wrap;rounded=0;" vertex="1" parent="17">
                    <mxGeometry x="20" y="77.5" width="60" height="30" as="geometry"/>
                </mxCell>
                <mxCell id="7" style="edgeStyle=none;html=1;entryX=1;entryY=0.5;entryDx=0;entryDy=0;exitX=1;exitY=0.5;exitDx=0;exitDy=0;" edge="1" parent="17" source="5" target="5">
                    <mxGeometry relative="1" as="geometry">
                        <mxPoint x="150" y="80" as="targetPoint"/>
                        <Array as="points">
                            <mxPoint x="120" y="80"/>
                        </Array>
                    </mxGeometry>
                </mxCell>
                <mxCell id="5" value="" style="rounded=0;whiteSpace=wrap;html=1;" vertex="1" parent="17">
                    <mxGeometry width="230" height="200" as="geometry"/>
                </mxCell>
                <mxCell id="6" value="EquipeService" style="text;strokeColor=none;fillColor=none;html=1;fontSize=24;fontStyle=1;verticalAlign=middle;align=center;" vertex="1" parent="17">
                    <mxGeometry x="70" y="10" width="100" height="40" as="geometry"/>
                </mxCell>
                <mxCell id="10" value="" style="rounded=0;whiteSpace=wrap;html=1;" vertex="1" parent="17">
                    <mxGeometry y="62.5" width="230" height="57.5" as="geometry"/>
                </mxCell>
                <mxCell id="12" value="-Equipes&lt;span style=&quot;white-space: pre;&quot;&gt;[&lt;/span&gt;]: Equipe" style="text;html=1;strokeColor=none;fillColor=none;align=center;verticalAlign=middle;whiteSpace=wrap;rounded=0;" vertex="1" parent="17">
                    <mxGeometry x="20" y="80" width="130" height="30" as="geometry"/>
                </mxCell>
                <mxCell id="16" style="edgeStyle=none;html=1;entryX=1;entryY=0.75;entryDx=0;entryDy=0;" edge="1" parent="17" target="5">
                    <mxGeometry relative="1" as="geometry">
                        <mxPoint x="230" y="150" as="sourcePoint"/>
                    </mxGeometry>
                </mxCell>
                <mxCell id="15" value="+adcionarEquipeParametro: void&lt;br&gt;+listarEquipes(): List&lt;br&gt;+listarEquipesPorId(): List&lt;br&gt;+atualizarEquipe(): void&lt;br&gt;+deletarEquipe():void" style="text;html=1;strokeColor=none;fillColor=none;align=center;verticalAlign=middle;whiteSpace=wrap;rounded=0;" vertex="1" parent="17">
                    <mxGeometry x="20" y="150" width="186" height="30" as="geometry"/>
                </mxCell>
                <mxCell id="18" value="" style="group" vertex="1" connectable="0" parent="1">
                    <mxGeometry x="70" y="80" width="210" height="195" as="geometry"/>
                </mxCell>
                <mxCell id="2" value="" style="rounded=0;whiteSpace=wrap;html=1;" vertex="1" parent="18">
                    <mxGeometry width="210" height="195" as="geometry"/>
                </mxCell>
                <mxCell id="4" value="Equipe" style="text;strokeColor=none;fillColor=none;html=1;fontSize=24;fontStyle=1;verticalAlign=middle;align=center;" vertex="1" parent="18">
                    <mxGeometry x="50" y="5" width="100" height="40" as="geometry"/>
                </mxCell>
                <mxCell id="9" value="" style="rounded=0;whiteSpace=wrap;html=1;" vertex="1" parent="18">
                    <mxGeometry y="55" width="210" height="90" as="geometry"/>
                </mxCell>
                <mxCell id="11" value="- id: Int&lt;br&gt;- nome: String&lt;br&gt;-titulares: int&lt;br&gt;-reservas: Int&lt;br&gt;-totalJogadores: Int" style="text;html=1;strokeColor=none;fillColor=none;align=center;verticalAlign=middle;whiteSpace=wrap;rounded=0;" vertex="1" parent="18">
                    <mxGeometry x="40" y="67.5" width="120" height="57.5" as="geometry"/>
                </mxCell>
                <mxCell id="13" value="+gerarId(): Int&lt;br&gt;+calcularReserva():Int&lt;br&gt;+calcularTotalJogadores(): Int" style="text;html=1;strokeColor=none;fillColor=none;align=center;verticalAlign=middle;whiteSpace=wrap;rounded=0;" vertex="1" parent="18">
                    <mxGeometry x="20" y="155" width="160" height="30" as="geometry"/>
                </mxCell>
                <mxCell id="21" style="edgeStyle=none;html=1;endArrow=diamond;endFill=0;" edge="1" parent="1" source="9">
                    <mxGeometry relative="1" as="geometry">
                        <mxPoint x="430" y="180" as="targetPoint"/>
                    </mxGeometry>
                </mxCell>
            </root>
        </mxGraphModel>
    </diagram>
</mxfile>